<?xml version="1.0" encoding="UTF-8"?>
<svg xmlns="http://www.w3.org/2000/svg" viewBox="0 0 403.9302 229.9526" role="img" aria-labelledby="logo-title logo-desc">
  <title id="logo-title">HUONG SON Company Limited logo</title>
  <desc id="logo-desc">Production-ready vector logo with transparent background.</desc>
  <!-- Original green process color from source artwork: C90 M40 Y100 K0 -->
  <g>
    <path fill="#1A9900" d="M 196.0899 2.0000 L 84.6484 86.2724 L 84.6484 108.6679 L 196.0899 24.3984 L 196.0899 2.0000 Z"/>
    <path fill="#FFFFFF" d="M 196.0899 2.0000 L 307.5195 86.2724 L 307.5195 108.6679 L 196.0899 24.3984 L 196.0899 2.0000 Z"/>
    <path fill="#FFFFFF" d="M 307.2090 108.6679 L 195.8467 24.6709 L 84.4688 108.6679 L 307.2090 108.6679 Z"/>
    <path fill="#1A9900" d="M 198.5977 57.1044 L 131.1914 108.0805 L 131.1914 121.6269 L 198.5977 70.6513 L 198.5977 57.1044 Z"/>
    <path fill="#FFFFFF" d="M 198.5977 57.1044 L 265.9893 108.0805 L 265.9893 121.6269 L 198.5977 70.6513 L 198.5977 57.1044 Z"/>
    <path fill="#FFFFFF" d="M 265.8047 121.6269 L 198.4453 70.8212 L 131.0840 121.6269 L 265.8047 121.6269 Z"/>
    <path fill="#1A9900" d="M 294.4033 80.1240 L 239.1660 121.8906 L 239.1660 132.9921 L 294.4033 91.2177 L 294.4033 80.1240 Z"/>
    <path fill="#FFFFFF" d="M 294.4033 80.1240 L 349.6314 121.8906 L 349.6314 132.9921 L 294.4033 91.2177 L 294.4033 80.1240 Z"/>
    <path fill="#FFFFFF" d="M 349.4732 132.9921 L 294.2842 91.3588 L 239.0840 132.9921 L 349.4732 132.9921 Z"/>
    <path fill="#FFFFFF" fill-rule="evenodd" clip-rule="evenodd" d="M 42.9453 177.1357 L 32.5234 177.1357 L 32.5234 164.5361 L 12.4697 164.5361 L 12.4697 177.1357 L 2.0000 177.1357 L 2.0000 143.4101 L 12.4697 143.4101 L 12.4697 155.7998 L 32.5234 155.7998 L 32.5234 143.4101 L 42.9453 143.4101 L 42.9453 177.1357 Z"/>
    <path fill="#FFFFFF" fill-rule="evenodd" clip-rule="evenodd" d="M 92.0654 161.7929 C 92.0654 172.0234 85.0547 177.1357 71.0332 177.1357 L 68.8359 177.1357 C 54.8106 177.1357 47.8018 172.0234 47.8018 161.7929 L 47.8018 143.4101 L 58.2266 143.4101 L 58.2266 161.7929 C 58.2266 164.8564 59.5664 166.8222 62.2490 167.6904 C 63.6797 168.1943 66.6133 168.4394 71.0332 168.4394 C 74.5557 168.4394 77.0596 168.0703 78.5567 167.3212 C 80.5830 166.3554 81.5957 164.5097 81.5957 161.7929 L 81.5957 143.4101 L 92.0654 143.4101 L 92.0654 161.7929 Z"/>
    <path fill="#FFFFFF" fill-rule="evenodd" clip-rule="evenodd" d="M 146.5625 159.9716 C 146.5625 164.9003 144.6426 168.9921 140.7901 172.2500 C 136.9453 175.5097 132.0957 177.1357 126.2324 177.1357 L 116.0850 177.1357 C 110.2041 177.1357 105.3350 175.5097 101.4824 172.2500 C 97.6338 168.9921 95.7129 164.9003 95.7129 159.9716 C 95.7129 155.0429 97.6192 151.0537 101.4336 147.9941 C 105.2510 144.9375 110.1357 143.4101 116.0850 143.4101 L 126.2324 143.4101 C 132.1846 143.4101 137.0606 144.9375 140.8652 147.9941 C 144.6660 151.0537 146.5625 155.0429 146.5625 159.9716 Z M 126.2324 152.1484 L 116.0850 152.1484 C 113.1924 152.1484 110.8067 152.9287 108.9395 154.4785 C 107.0625 156.0175 106.1319 157.9980 106.1319 160.3886 C 106.1319 162.7939 107.0625 164.7431 108.9395 166.2177 C 110.8067 167.6992 113.1924 168.4394 116.0850 168.4394 L 126.2324 168.4394 C 129.1309 168.4394 131.5137 167.6992 133.3799 166.2177 C 135.2549 164.7431 136.1934 162.7939 136.1934 160.3886 C 136.1934 157.9980 135.2500 156.0175 133.3613 154.4785 C 131.4785 152.9287 129.0977 152.1484 126.2324 152.1484 Z"/>
    <path fill="#FFFFFF" fill-rule="evenodd" clip-rule="evenodd" d="M 190.7354 172.7783 C 190.7354 175.8339 189.3438 177.3632 186.5742 177.3632 C 184.5781 177.3632 182.6817 176.6093 180.8711 175.1181 L 161.1445 158.6093 L 161.1445 177.1357 L 150.6748 177.1357 L 150.6748 147.7675 C 150.6748 146.5273 151.0703 145.4912 151.8692 144.6816 C 152.6621 143.8671 153.7920 143.4668 155.2578 143.4668 C 157.1543 143.4668 158.9141 144.1328 160.5391 145.4707 L 180.2666 161.9716 L 180.2666 143.4101 L 190.7354 143.4101 L 190.7354 172.7783 Z"/>
    <path fill="#FFFFFF" fill-rule="evenodd" clip-rule="evenodd" d="M 237.9404 143.4101 L 231.2119 152.1484 L 214.2891 152.1484 C 211.4199 152.1484 209.0410 152.9287 207.1553 154.4785 C 205.2754 156.0175 204.3311 157.9980 204.3311 160.3886 C 204.3311 162.7939 205.2647 164.7431 207.1377 166.2177 C 209.0029 167.6992 211.3848 168.4394 214.2891 168.4394 L 226.4404 168.4394 L 226.4404 165.2812 L 213.3506 165.2812 L 206.4815 156.9746 L 236.9131 156.9746 L 236.9131 177.1357 L 214.2891 177.1357 C 208.4277 177.1357 203.5733 175.5097 199.7227 172.2500 C 195.8779 168.9921 193.9522 164.9003 193.9522 159.9716 C 193.9522 155.0429 195.8535 151.0537 199.6563 147.9941 C 203.4609 144.9375 208.3379 143.4101 214.2891 143.4101 L 237.9404 143.4101 Z"/>
    <path fill="#FFFFFF" fill-rule="evenodd" clip-rule="evenodd" d="M 302.6758 143.4101 L 295.9365 152.1484 L 272.1035 152.1484 C 270.8203 152.1484 270.1826 152.6152 270.1826 153.5117 C 270.1826 154.4306 270.8203 154.8808 272.1035 154.8808 L 289.2588 154.8808 C 293.3399 154.8808 296.7461 155.8779 299.4981 157.8740 C 302.3369 159.9912 303.7451 162.7382 303.7451 166.0996 C 303.7451 169.4306 302.3106 172.1298 299.4453 174.1855 C 296.7744 176.1464 293.3731 177.1357 289.2588 177.1357 L 258.4024 177.1357 L 265.1387 168.4394 L 289.2588 168.4394 C 290.3447 168.4394 291.3291 168.2539 292.2031 167.8847 C 293.3252 167.4150 293.8828 166.7685 293.8828 165.9648 C 293.8828 165.1279 293.3252 164.4824 292.2031 164.0439 C 291.3574 163.7304 290.3848 163.5722 289.2588 163.5722 L 272.1035 163.5722 C 268.3008 163.5722 265.1182 162.7050 262.5693 160.9541 C 259.8262 159.0859 258.4551 156.6005 258.4551 153.5117 C 258.4551 150.4003 259.8262 147.9033 262.5693 146.0332 C 265.1182 144.2851 268.3008 143.4101 272.1035 143.4101 L 302.6758 143.4101 Z"/>
    <path fill="#FFFFFF" fill-rule="evenodd" clip-rule="evenodd" d="M 357.1255 159.9716 C 357.1255 164.9003 355.2017 168.9921 351.3521 172.2500 C 347.5025 175.5097 342.6548 177.1357 336.7935 177.1357 L 326.6450 177.1357 C 320.7603 177.1357 315.8931 175.5097 312.0479 172.2500 C 308.1943 168.9921 306.2715 164.9003 306.2715 159.9716 C 306.2715 155.0429 308.1748 151.0537 311.9942 147.9941 C 315.8130 144.9375 320.6958 143.4101 326.6450 143.4101 L 336.7935 143.4101 C 342.7427 143.4101 347.6255 144.9375 351.4204 147.9941 C 355.2290 151.0537 357.1255 155.0429 357.1255 159.9716 Z M 336.7935 152.1484 L 326.6450 152.1484 C 323.7466 152.1484 321.3657 152.9287 319.5025 154.4785 C 317.6255 156.0175 316.6919 157.9980 316.6919 160.3886 C 316.6919 162.7939 317.6255 164.7431 319.5025 166.2177 C 321.3657 167.6992 323.7466 168.4394 326.6450 168.4394 L 336.7935 168.4394 C 339.6939 168.4394 342.0728 167.6992 343.9400 166.2177 C 345.8130 164.7431 346.7564 162.7939 346.7564 160.3886 C 346.7564 157.9980 345.8110 156.0175 343.9204 154.4785 C 342.0396 152.9287 339.6548 152.1484 336.7935 152.1484 Z"/>
    <path fill="#FFFFFF" fill-rule="evenodd" clip-rule="evenodd" d="M 401.2935 172.7783 C 401.2935 175.8339 399.9048 177.3632 397.1255 177.3632 C 395.1333 177.3632 393.2368 176.6093 391.4263 175.1181 L 371.7036 158.6093 L 371.7036 177.1357 L 361.2290 177.1357 L 361.2290 147.7675 C 361.2290 146.5273 361.6294 145.4912 362.4185 144.6816 C 363.2212 143.8671 364.3462 143.4668 365.8110 143.4668 C 367.7173 143.4668 369.4751 144.1328 371.0923 145.4707 L 390.8208 161.9716 L 390.8208 143.4101 L 401.2935 143.4101 L 401.2935 172.7783 Z"/>
    <path fill="#FFFFFF" fill-rule="evenodd" clip-rule="evenodd" d="M 126.5513 211.1460 L 125.5488 214.2534 C 124.7842 214.8354 123.9302 215.3374 122.9873 215.7622 C 122.0444 216.2241 121.0864 216.5893 120.1138 216.8569 C 119.4751 217.0444 118.8516 217.1674 118.2427 217.2260 C 117.6338 217.3159 117.0440 217.3608 116.4722 217.3608 C 114.4600 217.3608 112.6480 216.6186 111.0371 215.1323 C 109.4258 213.6704 108.6201 211.3725 108.6201 208.2397 C 108.6201 208.0014 108.6353 207.7602 108.6651 207.5151 C 108.6651 207.3002 108.6651 207.0844 108.6651 206.8686 C 109.0288 202.3696 110.8067 198.1303 113.9995 194.1499 C 117.1997 190.1635 120.6821 187.4868 124.4463 186.1206 C 125.2109 185.8461 125.9570 185.6303 126.6851 185.4741 C 127.4126 185.3559 128.1441 185.2963 128.8789 185.2963 C 130.6680 185.2963 132.0957 185.7680 133.1611 186.7104 C 134.2266 187.6538 134.7593 188.8374 134.7593 190.2631 C 134.7593 190.5385 134.7442 190.8276 134.7149 191.1323 C 134.6553 191.4370 134.5625 191.7260 134.4365 192.0014 C 134.0723 193.0629 133.4043 194.1127 132.4317 195.1528 C 131.4292 196.2143 130.1968 197.2026 128.7339 198.1147 L 125.4600 196.1557 C 125.7271 195.9702 125.9981 195.7729 126.2730 195.5649 C 126.5474 195.3491 126.8369 195.1196 127.1416 194.8745 C 127.5352 194.5405 127.9302 194.1909 128.3276 193.8276 C 128.7246 193.4643 129.0903 193.0854 129.4248 192.6909 C 129.8477 192.2319 130.1968 191.7592 130.4717 191.2768 C 130.7163 190.8169 130.8389 190.3901 130.8389 189.9956 C 130.8389 189.9370 130.8389 189.8745 130.8389 189.8071 C 130.8389 189.7768 130.8242 189.7329 130.7944 189.6733 C 130.7349 189.2797 130.5386 188.9155 130.2041 188.5815 C 129.8628 188.2768 129.3579 188.1254 128.6895 188.1254 C 127.9321 188.1254 127.1416 188.2768 126.3174 188.5815 C 125.5005 188.8862 124.6651 189.3129 123.8115 189.8618 C 121.7769 191.1674 119.8467 193.0200 118.0200 195.4174 C 116.1641 197.8510 114.7793 200.3901 113.8657 203.0317 C 113.5913 203.9155 113.3794 204.7983 113.2310 205.6811 C 113.0454 206.5639 112.9526 207.4135 112.9526 208.2299 C 112.9526 210.3608 113.4243 211.8823 114.3672 212.7944 C 115.3101 213.7085 116.6651 214.1635 118.4321 214.1635 C 119.0112 214.1635 119.6499 214.0717 120.3477 213.8862 C 121.0161 213.7377 121.6992 213.5405 122.3970 213.2954 C 123.1245 212.9917 123.8560 212.6567 124.5913 212.2924 C 125.2891 211.9292 125.9424 211.5463 126.5513 211.1460 Z"/>
    <path fill="#FFFFFF" fill-rule="evenodd" clip-rule="evenodd" d="M 142.5112 198.2934 L 143.2461 200.9448 C 141.4492 201.5229 139.8677 202.3432 138.5015 203.4057 C 137.1353 204.5044 136.0254 205.6440 135.1719 206.8247 C 134.5332 207.7377 134.0469 208.6215 133.7129 209.4751 C 133.3486 210.3588 133.1670 211.1206 133.1670 211.7583 C 133.1670 212.5151 133.3189 213.0766 133.6235 213.4399 C 133.9277 213.8042 134.2769 214.0346 134.6704 214.1303 C 134.7300 214.1303 134.8042 214.1303 134.8931 214.1303 C 134.9898 214.1606 135.0825 214.1752 135.1719 214.1752 C 135.4761 214.1752 135.7803 214.1284 136.0850 214.0366 C 136.3892 213.9428 136.6939 213.7924 136.9981 213.5854 C 138.1192 212.9389 139.1367 211.8100 140.0498 210.1987 C 140.9629 208.6176 141.4194 206.7358 141.4194 204.5522 C 141.4194 204.3081 141.4194 204.0483 141.4194 203.7729 C 141.3897 203.5278 141.3599 203.2680 141.3306 202.9936 L 145.4400 201.8569 C 145.4697 202.0356 145.4995 202.2026 145.5293 202.3588 C 145.5586 202.5366 145.5737 202.7182 145.5737 202.9038 C 145.6035 203.0893 145.6182 203.2573 145.6182 203.4057 C 145.6182 203.5913 145.6182 203.7729 145.6182 203.9506 C 145.6182 207.1440 144.5674 209.9877 142.4663 212.4819 C 140.3428 215.0073 138.0039 216.5141 135.4502 217.0034 C 135.2051 217.0336 134.9600 217.0639 134.7149 217.0932 C 134.4702 217.1225 134.2251 217.1381 133.9800 217.1381 C 132.0347 217.1381 130.7280 216.6215 130.0596 215.5893 C 129.3618 214.5874 129.0127 213.4624 129.0127 212.2143 C 129.0127 209.3266 130.3193 206.6206 132.9331 204.0961 C 135.5542 201.5717 138.7466 199.6381 142.5112 198.2934 Z"/>
    <path fill="#FFFFFF" fill-rule="evenodd" clip-rule="evenodd" d="M 153.3174 198.9838 L 156.5147 200.6206 L 152.8159 207.4262 L 153.2280 207.6928 C 153.6221 207.3891 153.9707 207.0991 154.2754 206.8247 C 154.5503 206.5874 154.8101 206.3452 155.0552 206.1010 C 155.1148 206.0415 155.1743 205.9780 155.2334 205.9116 C 155.2632 205.8823 155.2930 205.8520 155.3228 205.8217 C 155.4785 205.6733 155.6455 205.5073 155.8242 205.3217 C 155.9800 205.1733 156.1470 205.0053 156.3252 204.8198 C 158.0337 203.1196 159.3745 202.0395 160.3477 201.5795 C 161.2905 201.1557 161.9741 200.9448 162.3975 200.9448 C 162.5161 200.9448 162.6685 200.9585 162.8540 200.9887 C 163.0401 201.0190 163.2368 201.0776 163.4448 201.1674 C 163.7495 201.2934 164.0391 201.4936 164.3140 201.7690 C 164.5591 202.0424 164.6817 202.4370 164.6817 202.9487 C 164.6817 203.3422 164.5889 203.7544 164.4028 204.1850 C 164.1948 204.6381 163.9536 205.0952 163.6787 205.5551 C 163.5527 205.7036 163.4297 205.8706 163.3110 206.0561 C 163.1924 206.2338 163.0698 206.4165 162.9434 206.6020 C 162.8540 206.7202 162.7651 206.8432 162.6763 206.9692 C 162.5796 207.0883 162.5015 207.2065 162.4424 207.3256 L 162.3975 207.3706 C 162.3975 207.4077 162.3828 207.4262 162.3530 207.4262 C 162.2642 207.5747 162.1563 207.7260 162.0298 207.8823 C 161.9111 208.0610 161.7588 208.2426 161.5733 208.4282 L 162.0298 208.6958 C 164.5254 206.2006 166.3823 204.6499 167.6006 204.0405 C 168.7891 203.4682 169.6392 203.1831 170.1519 203.1831 C 170.2485 203.1831 170.3560 203.1831 170.4751 203.1831 C 170.5938 203.2124 170.7163 203.2573 170.8428 203.3159 C 171.1475 203.4057 171.4199 203.5874 171.6616 203.8627 C 171.9028 204.1362 172.0239 204.5151 172.0239 204.9975 C 172.0239 205.5483 171.8862 206.1420 171.6113 206.7807 C 171.3071 207.4194 170.8355 208.2534 170.1968 209.2866 C 169.5278 210.3549 169.0117 211.1303 168.6480 211.6137 C 168.2837 212.1333 168.1021 212.5600 168.1021 212.8940 C 168.1021 213.0131 168.1314 213.1059 168.1909 213.1733 C 168.2207 213.2319 168.2651 213.2768 168.3247 213.3061 C 168.3618 213.3364 168.3955 213.3510 168.4253 213.3510 C 168.4546 213.3510 168.4844 213.3510 168.5142 213.3510 C 168.5737 213.3510 168.9077 213.2280 169.5171 212.9838 C 170.1260 212.7758 171.6299 212.1674 174.0293 211.1577 L 173.0264 214.2641 C 170.5977 215.5717 168.9116 216.4057 167.9683 216.7700 C 166.9951 217.1635 166.2041 217.3608 165.5952 217.3608 C 165.1050 217.3608 164.6777 217.2710 164.3140 217.0932 C 163.9497 216.9077 163.6900 216.5581 163.5342 216.0463 C 163.5044 215.8901 163.4893 215.7377 163.4893 215.5893 C 163.4595 215.4633 163.4448 215.3413 163.4448 215.2221 C 163.4448 215.1626 163.4448 215.1030 163.4448 215.0444 C 163.4448 214.9770 163.4595 214.9135 163.4893 214.8549 C 163.4893 214.7954 163.5044 214.7358 163.5342 214.6762 C 163.5342 214.6167 163.5342 214.5542 163.5342 214.4868 C 163.6602 213.9741 163.8604 213.4741 164.1358 212.9838 C 164.3731 212.5307 164.6294 212.0893 164.9043 211.6577 C 165.0601 211.4506 165.1978 211.2387 165.3164 211.0229 C 165.4429 210.8452 165.5654 210.6479 165.6841 210.4331 C 166.0186 209.8842 166.2598 209.4721 166.4082 209.1967 C 166.5645 208.9594 166.6572 208.7475 166.6870 208.5620 L 166.6870 208.5170 L 166.6870 208.4731 C 166.6870 208.3471 166.6572 208.2397 166.5977 208.1499 C 166.5088 208.0913 166.4009 208.0610 166.2749 208.0610 C 165.8814 208.0610 165.2568 208.4252 164.4028 209.1518 C 163.5562 209.9174 162.6611 210.7856 161.7178 211.7583 C 161.5322 211.9370 161.3652 212.1186 161.2163 212.3042 C 161.0606 212.4819 160.8897 212.6645 160.7041 212.8501 C 159.7979 213.8520 158.9771 214.7954 158.2417 215.6792 C 157.4844 216.5913 157.0127 217.1713 156.8272 217.4155 L 153.4956 216.5473 L 158.5205 206.9692 C 158.5205 206.9321 158.5352 206.8989 158.5650 206.8686 C 158.5650 206.8393 158.5650 206.8100 158.5650 206.7807 C 158.5942 206.7504 158.6094 206.7202 158.6094 206.6909 C 158.6094 206.6616 158.6094 206.6323 158.6094 206.6020 C 158.6094 206.5131 158.5942 206.4350 158.5650 206.3686 C 158.5054 206.3081 158.4458 206.2788 158.3867 206.2788 C 158.2305 206.2788 157.9556 206.4458 157.5620 206.7807 C 157.1314 207.1147 156.3848 207.7670 155.3228 208.7397 C 154.2603 209.7124 153.1353 210.8227 151.9468 212.0698 C 150.7290 213.3471 149.4067 215.1440 147.9805 217.4604 L 144.6045 216.5034 L 153.3174 198.9838 Z"/>
    <path fill="#FFFFFF" fill-rule="evenodd" clip-rule="evenodd" d="M 180.4219 194.0502 L 183.4287 195.5092 L 177.1362 207.6489 L 177.5933 207.9272 C 180.1470 205.3354 182.0923 203.5385 183.4287 202.5366 C 184.7656 201.5639 185.8755 201.0776 186.7588 201.0776 C 187.3975 201.0776 187.9136 201.2934 188.3071 201.7241 C 188.6709 202.1469 188.8862 202.6186 188.9531 203.1381 C 188.9824 203.1977 188.9976 203.2573 188.9976 203.3159 C 188.9976 203.4057 188.9976 203.4799 188.9976 203.5385 C 188.9976 204.0893 188.8750 204.6528 188.6299 205.2319 C 188.3848 205.8413 188.0952 206.4643 187.7612 207.1030 C 186.8775 208.8627 186.1948 210.0952 185.7119 210.8002 C 185.2222 211.4985 184.9771 212.0590 184.9771 212.4819 C 184.9771 212.6088 185.0068 212.7163 185.0659 212.8051 C 185.1328 212.8940 185.2109 212.9682 185.2998 213.0278 C 185.3296 213.0278 185.3740 213.0278 185.4336 213.0278 C 185.4634 213.0581 185.4932 213.0727 185.5230 213.0727 C 185.7378 213.0727 186.0908 212.9682 186.5806 212.7612 C 187.0635 212.5756 187.5791 212.3452 188.1289 212.0698 C 188.1582 212.0698 188.1880 212.0561 188.2178 212.0258 C 188.2476 211.9956 188.2774 211.9809 188.3071 211.9809 C 188.6411 211.8325 188.9605 211.6811 189.2647 211.5249 C 189.5396 211.3764 189.7993 211.2534 190.0444 211.1577 L 189.0420 214.2641 C 188.7969 214.4135 188.5073 214.5952 188.1734 214.8100 C 187.8394 215.0249 187.4756 215.2377 187.0820 215.4448 C 186.8369 215.6010 186.5918 215.7397 186.3467 215.8627 C 186.1021 215.9848 185.8604 216.1059 185.6231 216.2241 C 185.0733 216.4995 184.5391 216.7104 184.0191 216.8588 C 183.5068 217.0444 183.0503 217.1381 182.6494 217.1381 C 181.8623 217.1381 181.3018 216.9565 180.9678 216.5913 C 180.6035 216.2280 180.3887 215.8159 180.3218 215.3559 C 180.2920 215.2963 180.2774 215.2221 180.2774 215.1323 C 180.2774 215.0737 180.2774 215.0102 180.2774 214.9438 C 180.2774 214.4311 180.3994 213.8100 180.6445 213.0776 C 180.8897 212.3471 181.3760 211.3725 182.1035 210.1547 C 182.8311 208.9077 183.3623 208.0424 183.6963 207.5600 C 184.0005 207.0991 184.1714 206.7358 184.2085 206.4682 C 184.2085 206.4311 184.2085 206.3979 184.2085 206.3686 C 184.2085 206.3383 184.2085 206.3081 184.2085 206.2788 C 184.2085 206.2495 184.2085 206.2202 184.2085 206.1899 C 184.2085 206.1596 184.2085 206.1303 184.2085 206.1010 C 184.2085 206.0717 184.2085 206.0229 184.2085 205.9565 C 184.2085 205.9262 184.1900 205.8960 184.1528 205.8667 C 184.1231 205.7778 184.0640 205.7036 183.9746 205.6440 C 183.8858 205.5854 183.7188 205.5551 183.4736 205.5551 C 183.1987 205.5551 182.8648 205.6440 182.4712 205.8217 C 182.0479 206.0376 181.6211 206.3569 181.1904 206.7807 C 180.8267 207.1147 180.4776 207.4487 180.1436 207.7827 C 179.8096 208.1460 179.4902 208.4995 179.1856 208.8403 C 177.5742 210.6303 176.2359 212.4526 175.1709 214.3090 C 174.1050 216.1655 173.0859 218.1586 172.1138 220.2895 C 171.5938 221.4409 171.0776 222.6401 170.5654 223.8862 C 170.0161 225.1635 169.4517 226.5190 168.8726 227.9526 L 165.5425 227.1723 C 166.2407 225.3754 167.5938 222.0307 169.6021 217.1381 C 171.6104 212.2446 173.9697 207.0141 176.6797 201.4448 C 177.2886 200.1987 177.9121 198.9506 178.5508 197.7026 C 179.1597 196.4858 179.7832 195.2680 180.4219 194.0502 Z"/>
    <path fill="#FFFFFF" fill-rule="evenodd" clip-rule="evenodd" d="M 208.3765 200.1645 L 211.6621 201.9018 L 207.6416 209.7426 C 207.5820 209.8686 207.5225 210.0063 207.4634 210.1547 C 207.3740 210.3403 207.2813 210.5219 207.1846 210.7006 C 207.1548 210.7670 207.1401 210.8305 207.1401 210.8901 C 207.1104 210.9487 207.0806 211.0092 207.0513 211.0678 C 206.9321 211.3725 206.8267 211.6616 206.7339 211.9370 C 206.6406 212.2114 206.5942 212.3930 206.5942 212.4819 C 206.5942 212.5122 206.5942 212.5561 206.5942 212.6167 C 206.5942 212.6831 206.6094 212.7309 206.6392 212.7612 C 206.6685 212.9096 206.7319 213.0317 206.8281 213.1284 C 206.9175 213.2475 207.0361 213.3061 207.1846 213.3061 C 207.3701 213.3061 207.6914 213.2163 208.1480 213.0336 C 208.6050 212.8510 209.0742 212.6381 209.5571 212.3930 C 209.6240 212.3637 209.7017 212.3335 209.7910 212.3042 C 209.8501 212.2749 209.9097 212.2446 209.9692 212.2143 C 210.3994 211.9995 210.7969 211.7846 211.1607 211.5698 C 211.5244 211.3911 211.7808 211.2534 211.9292 211.1577 L 210.9712 214.2641 C 210.7637 214.4135 210.5220 214.5795 210.2476 214.7651 C 209.9727 214.9809 209.6685 215.1928 209.3345 215.3999 C 209.0596 215.5561 208.7847 215.7085 208.5103 215.8569 C 208.2056 216.0424 207.9160 216.2094 207.6416 216.3579 C 207.1587 216.5737 206.6870 216.7592 206.2271 216.9155 C 205.7739 217.0639 205.3657 217.1381 205.0020 217.1381 C 204.2368 217.1381 203.6279 216.9116 203.1753 216.4585 C 202.6929 216.0278 202.4517 215.5229 202.4517 214.9438 C 202.4517 214.7954 202.4663 214.6450 202.4961 214.4926 C 202.5254 214.3403 202.5552 214.1713 202.5850 213.9858 C 202.6445 213.8667 202.7036 213.7338 202.7632 213.5854 C 202.7930 213.4585 202.8228 213.3217 202.8526 213.1733 C 202.9487 212.9575 203.0415 212.7573 203.1309 212.5717 C 203.1900 212.4233 203.2349 212.3042 203.2647 212.2143 C 203.2940 212.1850 203.3237 212.1518 203.3535 212.1147 C 203.3535 212.0854 203.3535 212.0561 203.3535 212.0258 C 203.3906 211.9956 203.4238 211.9516 203.4536 211.8920 C 203.4834 211.8325 203.5132 211.7553 203.5430 211.6577 L 203.3535 211.6137 C 203.3237 211.6440 203.2940 211.6772 203.2647 211.7143 C 203.2051 211.7436 203.1602 211.7729 203.1309 211.8022 L 203.1309 211.8471 C 203.1011 211.8774 203.0713 211.8920 203.0415 211.8920 C 203.0117 211.9516 202.9805 211.9956 202.9473 212.0258 C 202.9136 212.0561 202.8672 212.1030 202.8076 212.1704 C 202.6294 212.3784 202.3106 212.6977 201.8501 213.1284 C 201.3970 213.5815 200.8662 214.0522 200.2573 214.5424 C 199.7080 214.9663 199.1138 215.3745 198.4756 215.7670 C 197.8369 216.1616 197.1836 216.4799 196.5151 216.7260 C 196.1812 216.8520 195.8472 216.9448 195.5132 217.0034 C 195.1489 217.0932 194.8003 217.1381 194.4658 217.1381 C 194.3101 217.1381 194.1577 217.1225 194.0093 217.0932 C 193.8535 217.0932 193.7012 217.0639 193.5527 217.0034 C 192.8848 216.8178 192.2608 216.3618 191.6817 215.6342 C 191.1026 214.9370 190.8130 213.8999 190.8130 212.5268 C 190.8130 211.7993 190.9951 210.9936 191.3589 210.1108 C 191.6929 209.2631 192.1646 208.3842 192.7734 207.4702 C 193.6865 206.0971 194.7964 204.7866 196.1030 203.5385 C 197.4102 202.2924 198.7651 201.3042 200.1685 200.5766 C 200.8364 200.2426 201.4898 199.9858 202.1284 199.8081 C 202.7373 199.6225 203.3462 199.5297 203.9551 199.5297 C 204.7417 199.5297 205.4102 199.6381 205.9595 199.8530 C 206.4795 200.0600 206.9063 200.2866 207.2402 200.5327 C 207.3589 200.6508 207.4780 200.7592 207.5967 200.8549 C 207.7232 200.9741 207.8159 201.0776 207.8755 201.1674 L 208.3765 200.1645 Z M 204.6343 207.2807 L 206.9619 202.9038 C 206.8433 202.7553 206.7207 202.6333 206.5942 202.5366 C 206.4756 202.4477 206.3530 202.3735 206.2271 202.3139 C 205.9893 202.1577 205.7627 202.0502 205.5474 201.9917 C 205.3027 201.9614 205.0908 201.9467 204.9126 201.9467 C 204.3931 201.9467 203.7691 202.1137 203.0415 202.4477 C 202.3067 202.8120 201.5454 203.2983 200.7588 203.9067 C 199.9048 204.5454 199.0840 205.2768 198.2974 206.1010 C 197.5029 206.9174 196.8496 207.7670 196.3369 208.6518 C 196.0625 209.1713 195.8472 209.6713 195.6909 210.1547 C 195.5132 210.6440 195.4238 211.1167 195.4238 211.5698 C 195.4238 212.3335 195.5610 212.8530 195.8359 213.1284 C 196.1030 213.3960 196.4077 213.5288 196.7490 213.5288 C 197.1724 213.5288 197.7031 213.3471 198.3418 212.9838 C 198.9805 212.6499 199.6338 212.2075 200.3018 211.6577 C 200.6065 211.4506 200.9107 211.2085 201.2153 210.9340 C 201.4898 210.6889 201.7793 210.4448 202.0840 210.1987 C 202.6929 209.6274 203.2383 209.0669 203.7212 208.5170 C 204.1812 207.9975 204.4859 207.5854 204.6343 207.2807 Z"/>
    <path fill="#FFFFFF" fill-rule="evenodd" clip-rule="evenodd" d="M 219.7363 198.8950 L 222.6543 200.3540 L 218.8677 207.9721 L 219.1904 208.2397 C 219.4277 207.9047 219.8511 207.4038 220.4600 206.7358 C 221.0689 206.0971 221.7705 205.4292 222.5650 204.7309 C 222.8394 204.4565 223.1109 204.1967 223.3779 203.9506 C 223.6528 203.7065 223.9424 203.4643 224.2466 203.2280 C 225.0708 202.5590 225.8618 201.9799 226.6192 201.4897 C 227.3540 201.0366 227.9776 200.8100 228.4898 200.8100 C 229.2251 200.8100 229.8340 201.0669 230.3164 201.5795 C 230.7769 202.1284 231.0068 202.8295 231.0068 203.6840 C 231.0068 204.1967 230.7769 204.8491 230.3164 205.6440 C 229.8633 206.4604 229.1172 207.8120 228.0781 209.6987 C 227.5357 210.7085 227.2163 211.3461 227.1201 211.6137 C 227.0313 211.9174 226.9863 212.1186 226.9863 212.2143 C 226.9863 212.2446 227.0015 212.2749 227.0313 212.3042 C 227.0313 212.3637 227.0313 212.4233 227.0313 212.4819 C 227.0903 212.5717 227.1685 212.6499 227.2651 212.7163 C 227.3242 212.7758 227.4136 212.8051 227.5322 212.8051 C 227.8364 212.8051 228.2930 212.6831 228.9019 212.4379 C 229.5108 212.1928 230.5615 211.7661 232.0537 211.1577 L 231.0518 214.2641 C 228.8316 215.5717 227.3096 216.3764 226.4854 216.6811 C 225.6314 216.9858 225.0669 217.1381 224.7925 217.1381 C 224.6734 217.1381 224.5547 217.1225 224.4360 217.0932 C 224.2803 217.0932 224.1279 217.0639 223.9795 217.0034 C 223.5786 216.8784 223.2295 216.6323 222.9326 216.2690 C 222.5908 215.9057 222.4204 215.3745 222.4204 214.6762 C 222.4204 213.7036 222.7100 212.6831 223.2891 211.6137 C 223.8682 210.5815 224.5215 209.3374 225.2490 207.8823 C 225.4942 207.3627 225.6929 206.9506 225.8447 206.6460 C 225.9971 206.3422 226.0733 206.0971 226.0733 205.9116 C 226.0733 205.7924 226.0435 205.6889 225.9839 205.5991 C 225.9248 205.5405 225.8467 205.4917 225.7500 205.4545 C 225.7207 205.4545 225.6909 205.4399 225.6611 205.4096 C 225.6314 205.4096 225.6016 205.4096 225.5723 205.4096 C 225.4234 205.4096 225.2564 205.4585 225.0708 205.5551 C 224.8555 205.6440 224.6587 205.7631 224.4805 205.9116 C 224.3916 205.9780 224.2984 206.0415 224.2022 206.1010 C 224.1133 206.1899 224.0239 206.2788 223.9351 206.3686 C 223.7192 206.5542 223.2315 207.0268 222.4702 207.7885 C 221.7090 208.5493 220.5230 209.8579 218.9121 211.7143 C 218.6670 212.0190 218.4556 212.2749 218.2774 212.4819 C 218.0615 212.7280 217.8799 212.9575 217.7315 213.1733 C 217.3306 213.6264 216.8887 214.1420 216.4063 214.7202 C 215.9160 215.3295 215.1401 216.1948 214.0786 217.3159 L 211.0713 216.3579 L 219.7363 198.8950 Z"/>
    <path fill="#FFFFFF" fill-rule="evenodd" clip-rule="evenodd" d="M 239.6094 198.4829 L 242.8071 200.1206 L 238.6060 207.8823 C 237.6626 209.6420 237.1167 210.7524 236.9683 211.2124 C 236.7822 211.6655 236.6895 211.9213 236.6895 211.9809 C 236.6895 212.2260 236.7339 212.3930 236.8233 212.4819 C 236.9199 212.5717 237.0127 212.6167 237.1021 212.6167 L 237.1465 212.6167 L 237.1909 212.6167 C 237.2207 212.6167 237.2505 212.6167 237.2803 212.6167 C 237.3174 212.6167 237.3506 212.6167 237.3804 212.6167 C 237.4102 212.6167 237.4400 212.6167 237.4697 212.6167 C 237.4990 212.6167 237.5288 212.6167 237.5586 212.6167 C 238.4131 212.4975 239.8281 211.4799 241.8047 209.5639 C 243.7510 207.6489 245.8198 204.9135 248.0117 201.3569 C 248.0708 201.2299 248.1450 201.1069 248.2344 200.9887 C 248.3013 200.8999 248.3643 200.7924 248.4238 200.6655 L 251.5664 202.2690 C 250.8384 203.5463 249.9580 205.1284 248.9253 207.0141 C 247.8926 208.9292 246.8267 210.9682 245.7271 213.1284 C 245.3926 213.7963 245.0733 214.4506 244.7686 215.0883 C 244.4341 215.7573 244.1001 216.4252 243.7656 217.0932 C 242.8818 218.9194 242.0606 220.7124 241.3027 222.4721 C 240.5376 224.2690 239.8989 225.9292 239.3862 227.4506 L 235.5527 226.6713 C 235.8872 225.5131 236.3735 224.2065 237.0127 222.7514 C 237.6514 221.3178 238.3794 219.8403 239.1968 218.3178 C 239.5386 217.6792 239.8916 217.0600 240.2554 216.4585 C 240.6196 215.8491 240.9688 215.2260 241.3027 214.5874 C 241.3921 214.4907 241.4663 214.3833 241.5259 214.2641 C 241.5928 214.1752 241.6558 214.0678 241.7153 213.9409 C 241.9605 213.5180 242.1719 213.1694 242.3506 212.8940 C 242.5064 212.6499 242.6436 212.4077 242.7627 212.1704 C 242.8521 212.0151 242.9448 211.8627 243.0415 211.7143 C 243.1304 211.5581 243.2344 211.3911 243.3535 211.2124 L 243.0415 211.0678 C 242.8555 211.2534 242.6846 211.4213 242.5288 211.5698 C 242.3506 211.7553 242.1685 211.9370 241.9829 212.1147 C 241.5591 212.5454 241.1192 212.9575 240.6621 213.3510 C 240.2051 213.7446 239.7651 214.1420 239.3418 214.5424 C 238.4282 215.2710 237.5440 215.8754 236.6895 216.3579 C 235.8057 216.8481 234.9995 217.0932 234.2715 217.0932 C 234.1524 217.0932 234.0151 217.0639 233.8594 217.0034 C 233.6807 216.9741 233.4985 216.9116 233.3130 216.8149 C 233.0381 216.6362 232.7783 216.3510 232.5327 215.9565 C 232.2954 215.5854 232.1763 215.0659 232.1763 214.3979 C 232.1763 214.1899 232.5108 213.0210 233.1792 210.8901 C 233.8184 208.7885 235.9614 204.6528 239.6094 198.4829 Z"/>
    <path fill="#FFFFFF" fill-rule="evenodd" clip-rule="evenodd" d="M 285.8799 211.2573 L 289.0313 212.9389 C 288.9053 213.1840 288.7827 213.4585 288.6641 213.7631 C 288.5151 214.0678 288.3335 214.3725 288.1182 214.6762 C 287.5986 215.4633 286.8818 216.1762 285.9688 216.8149 C 285.0259 217.4526 283.7969 217.7729 282.2822 217.7729 C 281.8814 217.7729 281.4839 217.7426 281.0908 217.6831 C 280.6675 217.6538 280.2588 217.5942 279.8657 217.5053 C 279.5610 217.4458 279.2715 217.3676 278.9971 217.2710 C 278.6924 217.2124 278.3882 217.1674 278.0835 217.1381 C 277.9946 217.1079 277.8867 217.0776 277.7608 217.0483 C 277.6416 217.0190 277.5191 216.9897 277.3931 216.9594 C 276.7251 216.7739 276.0415 216.6069 275.3438 216.4585 C 274.6162 216.3315 273.8106 216.2690 272.9273 216.2690 C 272.5928 216.2690 272.2734 216.2690 271.9692 216.2690 C 271.6353 216.2983 271.3013 216.3432 270.9668 216.4028 C 270.2022 216.4995 269.4263 216.6362 268.6392 216.8149 C 267.8150 217.0307 266.9165 217.3042 265.9439 217.6381 L 265.0308 214.9877 C 266.1294 214.6245 267.0874 214.0346 267.9043 213.2172 C 268.6987 212.3930 269.4746 211.3129 270.2319 209.9760 C 270.9668 208.6694 271.7280 207.0581 272.5151 205.1430 C 273.3096 203.2573 274.2373 201.0219 275.2993 198.4389 C 275.6035 197.7026 275.9229 196.9272 276.2573 196.1108 C 276.5913 195.2866 276.9697 194.4477 277.3931 193.5932 C 278.4624 191.4702 279.8320 189.5102 281.5029 187.7133 C 283.1436 185.9165 285.2710 185.0180 287.8843 185.0180 C 289.7109 185.0180 291.2476 185.5229 292.4951 186.5327 C 293.7427 187.5346 294.3662 189.0239 294.3662 190.9985 C 294.3662 192.3061 294.0913 193.4751 293.5420 194.5073 C 293.0000 195.5756 292.3950 196.4604 291.7266 197.1577 C 291.5708 197.3432 291.4185 197.5102 291.2700 197.6586 C 291.0845 197.8442 290.9136 197.9965 290.7578 198.1147 L 287.4277 196.1557 C 287.7319 195.9399 288.0068 195.7241 288.2520 195.5092 C 288.4971 195.3315 288.7271 195.1342 288.9424 194.9194 C 289.7593 194.0727 290.2603 193.2670 290.4458 192.5024 C 290.5942 191.7749 290.6685 191.2885 290.6685 191.0434 C 290.6685 190.1889 290.4868 189.5502 290.1231 189.1274 C 289.7295 188.7338 289.3023 188.4741 288.8423 188.3481 C 288.6343 188.2885 288.4224 188.2436 288.2075 188.2143 C 287.9917 188.1850 287.8101 188.1694 287.6616 188.1694 C 286.2954 188.1694 285.1558 188.7788 284.2427 189.9956 C 283.3291 191.2143 282.4458 192.7807 281.5918 194.6967 C 280.9829 196.1215 280.3594 197.6733 279.7207 199.3510 C 279.0527 201.0219 278.2915 202.7221 277.4375 204.4526 C 276.7100 206.0336 275.8745 207.5708 274.9317 209.0629 C 273.9590 210.5854 272.8491 212.0151 271.6016 213.3510 L 271.8355 213.6733 C 272.1104 213.5776 272.3960 213.4702 272.6934 213.3510 C 272.9678 213.2612 273.2573 213.1879 273.5620 213.1284 C 273.9927 213.0014 274.4194 212.8940 274.8428 212.8051 C 275.2661 212.7456 275.6445 212.7163 275.9785 212.7163 C 276.5576 212.7163 277.1367 212.7456 277.7163 212.8051 C 278.2656 212.8940 278.8110 213.0170 279.3530 213.1733 C 279.5093 213.2026 279.6465 213.2319 279.7651 213.2612 C 279.8916 213.3217 280.0288 213.3667 280.1773 213.3960 C 280.3037 213.4252 280.4409 213.4545 280.5894 213.4848 C 280.7080 213.5522 280.8457 213.6001 281.0015 213.6294 C 281.2466 213.6889 281.5064 213.7338 281.7813 213.7631 C 282.0484 213.8227 282.3193 213.8520 282.5942 213.8520 C 282.8096 213.8520 283.0840 213.8227 283.4185 213.7631 C 283.7525 213.7036 284.1016 213.5366 284.4653 213.2612 C 284.7105 213.0766 284.9551 212.8159 285.2002 212.4819 C 285.4453 212.1782 285.6719 211.7690 285.8799 211.2573 Z"/>
    <path fill="#FFFFFF" fill-rule="evenodd" clip-rule="evenodd" d="M 300.5254 211.1577 L 299.4341 214.2641 C 299.1890 214.4135 298.8545 214.5952 298.4317 214.8100 C 298.0010 215.0551 297.5440 215.3002 297.0615 215.5444 C 296.8462 215.6342 296.6494 215.7231 296.4712 215.8120 C 296.2559 215.9096 296.0405 216.0014 295.8252 216.0913 C 295.1572 216.3960 294.5337 216.6362 293.9546 216.8149 C 293.3452 217.0307 292.8442 217.1381 292.4507 217.1381 C 291.6265 217.1381 291.0029 216.8481 290.5796 216.2690 C 290.1270 215.7202 289.9004 215.0952 289.9004 214.3979 C 289.9004 213.7885 290.3086 212.5893 291.1255 210.8002 C 291.9497 209.0336 294.1846 205.0014 297.8301 198.7055 L 301.0264 200.3100 L 295.2354 210.8452 C 294.9605 211.3276 294.7935 211.6909 294.7339 211.9370 C 294.6450 212.2114 294.6001 212.4379 294.6001 212.6167 C 294.6001 212.7719 294.6450 212.8794 294.7339 212.9389 C 294.7935 213.0278 294.8677 213.0727 294.9566 213.0727 C 295.0234 213.1098 295.0864 213.1284 295.1460 213.1284 C 295.1758 213.1284 295.2056 213.1284 295.2354 213.1284 C 295.6880 213.1284 296.2671 212.9917 296.9727 212.7163 C 297.6406 212.4409 298.8252 211.9213 300.5254 211.1577 Z M 302.3965 190.3198 L 303.9443 190.3198 C 304.0039 190.3198 304.0816 190.3198 304.1782 190.3198 C 304.2378 190.3198 304.3120 190.3198 304.4009 190.3198 C 304.5864 190.3491 304.7686 190.4077 304.9468 190.4975 C 305.1026 190.6167 305.1807 190.8276 305.1807 191.1323 C 305.1807 191.3471 305.1362 191.5776 305.0469 191.8227 C 304.9502 192.0971 304.8281 192.3686 304.6797 192.6362 C 304.3452 193.2143 303.8887 193.7495 303.3096 194.2397 C 302.7305 194.7221 302.1216 194.9633 301.4829 194.9633 L 301.4385 194.9633 C 301.3789 194.9633 301.3013 194.9633 301.2046 194.9633 C 301.1157 194.9633 301.0264 194.9487 300.9375 194.9194 C 300.7515 194.8891 300.5698 194.8149 300.3916 194.6967 C 300.2061 194.5991 300.0835 194.4331 300.0239 194.1948 C 299.9942 194.1362 299.9795 194.0727 299.9795 194.0053 C 299.9795 193.9467 299.9795 193.8872 299.9795 193.8276 C 299.9795 193.7983 299.9795 193.7680 299.9795 193.7377 L 300.0239 193.6938 C 300.0239 193.6635 300.0239 193.6303 300.0239 193.5932 L 300.0239 193.5493 C 300.1724 192.7924 300.4175 192.1538 300.7593 191.6333 C 301.0562 191.1206 301.3755 190.7573 301.7168 190.5424 C 301.8355 190.4526 301.9546 190.3940 302.0733 190.3637 C 302.1699 190.3344 302.2774 190.3198 302.3965 190.3198 Z"/>
    <path fill="#FFFFFF" fill-rule="evenodd" clip-rule="evenodd" d="M 308.4585 198.9838 L 311.6558 200.6206 L 307.9570 207.4262 L 308.3692 207.6928 C 308.7632 207.3891 309.1118 207.0991 309.4165 206.8247 C 309.6914 206.5874 309.9512 206.3452 310.1963 206.1010 C 310.2559 206.0415 310.3154 205.9780 310.3745 205.9116 C 310.4043 205.8823 310.4341 205.8520 310.4639 205.8217 C 310.6196 205.6733 310.7866 205.5073 310.9653 205.3217 C 311.1211 205.1733 311.2881 205.0053 311.4663 204.8198 C 313.1748 203.1196 314.5156 202.0395 315.4888 201.5795 C 316.4317 201.1557 317.1152 200.9448 317.5386 200.9448 C 317.6572 200.9448 317.8096 200.9585 317.9951 200.9887 C 318.1812 201.0190 318.3779 201.0776 318.5859 201.1674 C 318.8906 201.2934 319.1802 201.4936 319.4551 201.7690 C 319.7002 202.0424 319.8228 202.4370 319.8228 202.9487 C 319.8228 203.3422 319.7300 203.7544 319.5440 204.1850 C 319.3359 204.6381 319.0947 205.0952 318.8198 205.5551 C 318.6939 205.7036 318.5708 205.8706 318.4522 206.0561 C 318.3335 206.2338 318.2109 206.4165 318.0845 206.6020 C 317.9951 206.7202 317.9063 206.8432 317.8174 206.9692 C 317.7207 207.0883 317.6426 207.2065 317.5835 207.3256 L 317.5386 207.3706 C 317.5386 207.4077 317.5239 207.4262 317.4942 207.4262 C 317.4053 207.5747 317.2974 207.7260 317.1709 207.8823 C 317.0523 208.0610 316.8999 208.2426 316.7144 208.4282 L 317.1709 208.6958 C 319.6665 206.2006 321.5234 204.6499 322.7417 204.0405 C 323.9302 203.4682 324.7803 203.1831 325.2930 203.1831 C 325.3897 203.1831 325.4971 203.1831 325.6162 203.1831 C 325.7349 203.2124 325.8574 203.2573 325.9839 203.3159 C 326.2886 203.4057 326.5610 203.5874 326.8027 203.8627 C 327.0440 204.1362 327.1651 204.5151 327.1651 204.9975 C 327.1651 205.5483 327.0274 206.1420 326.7525 206.7807 C 326.4483 207.4194 325.9766 208.2534 325.3379 209.2866 C 324.6690 210.3549 324.1528 211.1303 323.7891 211.6137 C 323.4248 212.1333 323.2432 212.5600 323.2432 212.8940 C 323.2432 213.0131 323.2725 213.1059 323.3320 213.1733 C 323.3618 213.2319 323.4063 213.2768 323.4658 213.3061 C 323.5029 213.3364 323.5366 213.3510 323.5664 213.3510 C 323.5957 213.3510 323.6255 213.3510 323.6553 213.3510 C 323.7149 213.3510 324.0488 213.2280 324.6582 212.9838 C 325.2671 212.7758 326.7710 212.1674 329.1704 211.1577 L 328.1675 214.2641 C 325.7388 215.5717 324.0527 216.4057 323.1094 216.7700 C 322.1362 217.1635 321.3452 217.3608 320.7363 217.3608 C 320.2461 217.3608 319.8189 217.2710 319.4551 217.0932 C 319.0908 216.9077 318.8311 216.5581 318.6753 216.0463 C 318.6455 215.8901 318.6304 215.7377 318.6304 215.5893 C 318.6006 215.4633 318.5859 215.3413 318.5859 215.2221 C 318.5859 215.1626 318.5859 215.1030 318.5859 215.0444 C 318.5859 214.9770 318.6006 214.9135 318.6304 214.8549 C 318.6304 214.7954 318.6455 214.7358 318.6753 214.6762 C 318.6753 214.6167 318.6753 214.5542 318.6753 214.4868 C 318.8013 213.9741 319.0015 213.4741 319.2769 212.9838 C 319.5142 212.5307 319.7705 212.0893 320.0454 211.6577 C 320.2012 211.4506 320.3389 211.2387 320.4575 211.0229 C 320.5840 210.8452 320.7066 210.6479 320.8252 210.4331 C 321.1597 209.8842 321.4009 209.4721 321.5493 209.1967 C 321.7056 208.9594 321.7984 208.7475 321.8281 208.5620 L 321.8281 208.5170 L 321.8281 208.4731 C 321.8281 208.3471 321.7984 208.2397 321.7388 208.1499 C 321.6499 208.0913 321.5420 208.0610 321.4160 208.0610 C 321.0225 208.0610 320.3980 208.4252 319.5440 209.1518 C 318.6973 209.9174 317.8023 210.7856 316.8589 211.7583 C 316.6734 211.9370 316.5064 212.1186 316.3574 212.3042 C 316.2017 212.4819 316.0308 212.6645 315.8452 212.8501 C 314.9390 213.8520 314.1182 214.7954 313.3828 215.6792 C 312.6255 216.5913 312.1538 217.1713 311.9683 217.4155 L 308.6367 216.5473 L 313.6616 206.9692 C 313.6616 206.9321 313.6763 206.8989 313.7061 206.8686 C 313.7061 206.8393 313.7061 206.8100 313.7061 206.7807 C 313.7354 206.7504 313.7505 206.7202 313.7505 206.6909 C 313.7505 206.6616 313.7505 206.6323 313.7505 206.6020 C 313.7505 206.5131 313.7354 206.4350 313.7061 206.3686 C 313.6465 206.3081 313.5869 206.2788 313.5278 206.2788 C 313.3716 206.2788 313.0967 206.4458 312.7031 206.7807 C 312.2725 207.1147 311.5259 207.7670 310.4639 208.7397 C 309.4014 209.7124 308.2764 210.8227 307.0879 212.0698 C 305.8701 213.3471 304.5479 215.1440 303.1216 217.4604 L 299.7456 216.5034 L 308.4585 198.9838 Z"/>
    <path fill="#FFFFFF" fill-rule="evenodd" clip-rule="evenodd" d="M 336.7437 211.1577 L 335.6524 214.2641 C 335.4072 214.4135 335.0728 214.5952 334.6499 214.8100 C 334.2192 215.0551 333.7622 215.3002 333.2798 215.5444 C 333.0645 215.6342 332.8677 215.7231 332.6895 215.8120 C 332.4741 215.9096 332.2588 216.0014 332.0435 216.0913 C 331.3755 216.3960 330.7520 216.6362 330.1729 216.8149 C 329.5635 217.0307 329.0625 217.1381 328.6690 217.1381 C 327.8447 217.1381 327.2212 216.8481 326.7979 216.2690 C 326.3452 215.7202 326.1187 215.0952 326.1187 214.3979 C 326.1187 213.7885 326.5269 212.5893 327.3438 210.8002 C 328.1680 209.0336 330.4028 205.0014 334.0484 198.7055 L 337.2446 200.3100 L 331.4536 210.8452 C 331.1787 211.3276 331.0117 211.6909 330.9522 211.9370 C 330.8633 212.2114 330.8184 212.4379 330.8184 212.6167 C 330.8184 212.7719 330.8633 212.8794 330.9522 212.9389 C 331.0117 213.0278 331.0859 213.0727 331.1748 213.0727 C 331.2417 213.1098 331.3047 213.1284 331.3643 213.1284 C 331.3941 213.1284 331.4238 213.1284 331.4536 213.1284 C 331.9063 213.1284 332.4854 212.9917 333.1909 212.7163 C 333.8589 212.4409 335.0435 211.9213 336.7437 211.1577 Z M 338.6148 190.3198 L 340.1626 190.3198 C 340.2222 190.3198 340.2998 190.3198 340.3965 190.3198 C 340.4561 190.3198 340.5303 190.3198 340.6192 190.3198 C 340.8047 190.3491 340.9868 190.4077 341.1651 190.4975 C 341.3208 190.6167 341.3989 190.8276 341.3989 191.1323 C 341.3989 191.3471 341.3545 191.5776 341.2651 191.8227 C 341.1685 192.0971 341.0464 192.3686 340.8980 192.6362 C 340.5635 193.2143 340.1069 193.7495 339.5278 194.2397 C 338.9487 194.7221 338.3399 194.9633 337.7012 194.9633 L 337.6567 194.9633 C 337.5972 194.9633 337.5195 194.9633 337.4229 194.9633 C 337.3340 194.9633 337.2446 194.9487 337.1558 194.9194 C 336.9697 194.8891 336.7881 194.8149 336.6099 194.6967 C 336.4243 194.5991 336.3018 194.4331 336.2422 194.1948 C 336.2124 194.1362 336.1978 194.0727 336.1978 194.0053 C 336.1978 193.9467 336.1978 193.8872 336.1978 193.8276 C 336.1978 193.7983 336.1978 193.7680 336.1978 193.7377 L 336.2422 193.6938 C 336.2422 193.6635 336.2422 193.6303 336.2422 193.5932 L 336.2422 193.5493 C 336.3906 192.7924 336.6358 192.1538 336.9776 191.6333 C 337.2744 191.1206 337.5938 190.7573 337.9351 190.5424 C 338.0537 190.4526 338.1729 190.3940 338.2915 190.3637 C 338.3882 190.3344 338.4956 190.3198 338.6148 190.3198 Z"/>
    <path fill="#FFFFFF" fill-rule="evenodd" clip-rule="evenodd" d="M 348.2861 211.1577 L 347.3291 214.2641 C 345.2070 215.4819 343.6748 216.2573 342.7324 216.5913 C 341.7901 216.9565 341.1226 217.1381 340.7290 217.1381 C 340.0537 217.1381 339.4751 216.9262 338.9927 216.5034 C 338.5034 216.0717 338.2583 215.3862 338.2583 214.4428 C 338.2583 213.7446 338.4883 212.7866 338.9483 211.5698 C 339.3711 210.3510 339.8872 209.0737 340.4951 207.7377 C 340.6509 207.4331 340.8032 207.1147 340.9517 206.7807 C 341.1074 206.4458 341.2598 206.1264 341.4082 205.8217 C 341.8311 204.9760 342.2427 204.1704 342.6436 203.4057 C 343.0366 202.6772 343.3853 202.0395 343.6895 201.4897 C 342.6582 201.5190 341.8052 201.5971 341.1299 201.7241 C 340.4321 201.8725 339.8276 202.0249 339.3154 202.1811 L 340.0835 199.3960 C 340.3584 199.3667 340.5733 199.3335 340.7290 199.2963 C 340.8482 199.2661 340.9668 199.2358 341.0855 199.2065 L 341.1299 199.2065 L 341.1856 199.2065 C 341.2446 199.1772 341.3189 199.1479 341.4082 199.1176 C 341.4673 199.1176 341.5415 199.1176 341.6309 199.1176 C 341.6675 199.1176 341.7012 199.1030 341.7310 199.0737 L 341.7754 199.0737 C 342.1983 198.9838 342.6694 198.8911 343.1890 198.7944 C 343.6709 198.7358 344.3237 198.6909 345.1480 198.6616 C 345.6299 197.7475 346.0381 196.9868 346.3721 196.3784 C 346.7134 195.7690 347.0176 195.2085 347.2847 194.6967 C 347.3516 194.6362 347.3999 194.5756 347.4292 194.5131 C 347.4590 194.4497 347.4888 194.3881 347.5186 194.3286 C 347.6665 194.0835 347.8189 193.8237 347.9746 193.5493 C 348.1231 193.3120 348.2901 193.0551 348.4756 192.7807 L 351.7588 193.9604 C 351.6030 194.1772 351.4658 194.3725 351.3472 194.5512 C 351.1909 194.7670 351.0537 194.9672 350.9351 195.1528 C 350.8760 195.2710 350.8164 195.3754 350.7568 195.4643 C 350.6607 195.5913 350.5825 195.7133 350.5234 195.8315 C 350.3154 196.1967 350.1040 196.5786 349.8892 196.9799 C 349.6441 197.3725 349.3843 197.8256 349.1099 198.3374 C 349.3550 198.3374 349.5996 198.3237 349.8447 198.2934 C 350.0523 198.2934 350.2637 198.2934 350.4790 198.2934 C 350.7236 198.2934 350.9834 198.2934 351.2583 198.2934 C 351.5029 198.2934 351.7734 198.2934 352.0703 198.2934 C 352.5303 198.2934 352.9273 198.2934 353.2612 198.2934 C 353.5952 198.3237 353.9141 198.3569 354.2183 198.3940 C 354.3667 198.4233 354.5020 198.4526 354.6245 198.4829 C 354.7471 198.5131 354.8862 198.5424 355.0420 198.5717 L 353.3950 201.5346 C 353.3057 201.5053 353.2168 201.4751 353.1279 201.4448 C 353.0015 201.4155 352.8794 201.3862 352.7608 201.3569 C 352.5156 201.2963 352.2412 201.2338 351.9370 201.1674 C 351.6030 201.1372 351.2544 201.1225 350.8906 201.1225 C 350.6753 201.1225 350.4639 201.1225 350.2564 201.1225 C 350.0410 201.1225 349.8110 201.1225 349.5664 201.1225 C 349.2324 201.1225 348.8984 201.1225 348.5645 201.1225 C 348.2305 201.1518 347.9414 201.1821 347.6963 201.2114 C 345.8413 204.8051 344.5205 207.4526 343.7344 209.1518 C 342.9107 210.8608 342.4990 212.0151 342.4990 212.6167 C 342.4990 212.9204 342.5767 213.1206 342.7324 213.2172 C 342.8511 213.3061 343.0034 213.3510 343.1890 213.3510 C 343.7007 213.3510 344.3984 213.1245 345.2813 212.6713 C 346.1641 212.2417 347.1660 211.7358 348.2861 211.1577 Z"/>
    <path fill="#FFFFFF" fill-rule="evenodd" clip-rule="evenodd" d="M 348.2710 211.3461 L 349.1060 210.7006 C 349.2544 208.6518 349.9785 206.7202 351.2778 204.9096 C 352.5547 203.1499 354.0249 201.7866 355.6880 200.8217 C 356.3862 200.4282 357.1250 200.1049 357.9043 199.8530 C 358.6470 199.6381 359.3818 199.5297 360.1099 199.5297 C 361.3198 199.5297 362.2852 199.8042 363.0054 200.3540 C 363.7256 200.9252 364.2007 201.5493 364.4307 202.2251 C 364.4458 202.2690 364.4531 202.3022 364.4531 202.3256 L 364.4868 202.4585 C 364.6353 203.0756 364.6089 203.8920 364.4087 204.9096 C 364.1782 205.9702 363.3506 207.0366 361.9248 208.1049 C 361.0933 208.7065 359.9981 209.3159 358.6397 209.9321 C 357.2437 210.5932 355.5361 211.1909 353.5166 211.7251 C 353.5166 211.8432 353.5239 211.9292 353.5386 211.9809 C 353.5239 212.0854 353.5347 212.1967 353.5723 212.3159 C 353.7280 212.8198 354.0772 213.2475 354.6192 213.5961 C 355.1611 213.9526 355.8775 214.1303 356.7686 214.1303 C 357.3775 214.1303 358.1348 213.9936 359.0405 213.7182 C 359.8867 213.4956 360.7705 213.1469 361.6909 212.6713 C 362.1069 212.4780 362.5112 212.2631 362.9053 212.0258 C 363.3062 211.7661 363.6660 211.5249 363.9854 211.3022 L 363.7290 214.2641 C 363.2319 214.6655 362.6934 215.0141 362.1143 215.3110 C 361.4834 215.6381 360.8853 215.9165 360.3213 216.1460 C 359.3560 216.4956 358.4575 216.7368 357.6260 216.8706 C 356.7202 217.0483 355.9219 217.1381 355.2315 217.1381 C 354.0064 217.1381 352.8369 216.7739 351.7232 216.0463 C 350.5650 215.3559 349.8413 214.4135 349.5518 213.2172 L 348.0147 214.3530 L 348.2710 211.3461 Z M 353.7280 209.0629 C 354.7378 208.7807 355.5991 208.4624 356.3120 208.1049 C 356.9653 207.7788 357.5591 207.4194 358.0938 207.0249 C 358.9107 206.4086 359.4819 205.8256 359.8091 205.2768 C 360.0464 204.8237 360.2246 204.4487 360.3438 204.1518 C 360.3286 204.2407 360.3438 204.1733 360.3882 203.9506 C 360.3882 203.9292 360.3936 203.9018 360.4048 203.8676 C 360.4160 203.8344 360.4253 203.8061 360.4326 203.7846 C 360.4551 203.7319 360.4658 203.6499 360.4658 203.5385 L 360.3994 203.2719 C 360.3325 203.0044 360.2173 202.7895 360.0542 202.6264 C 359.9053 202.5151 359.6939 202.4585 359.4190 202.4585 C 359.0254 202.4585 358.6284 202.5659 358.2276 202.7817 C 357.7817 202.9897 357.3623 203.2788 356.9688 203.6499 C 356.5308 204.0288 356.1260 204.4633 355.7549 204.9536 C 355.3984 205.4370 355.0606 205.9702 354.7417 206.5571 C 354.4595 207.0327 354.2442 207.4555 354.0957 207.8276 C 353.9546 208.2358 353.8320 208.6518 353.7280 209.0737 L 353.7280 209.0629 Z"/>
    <path fill="#FFFFFF" fill-rule="evenodd" clip-rule="evenodd" d="M 387.7969 189.2612 L 391.7617 190.4975 C 388.5391 197.2768 386.0742 202.4917 384.3662 206.1460 C 382.6362 209.7905 381.7715 211.9809 381.7715 212.7163 C 381.7715 212.7456 381.7715 212.7758 381.7715 212.8051 C 381.7715 212.8647 381.7861 212.9243 381.8159 212.9838 C 381.8457 213.0795 381.9199 213.1733 382.0386 213.2612 C 382.1353 213.3510 382.2725 213.3960 382.4507 213.3960 C 382.6958 213.3960 383.1524 213.2436 383.8208 212.9389 C 384.4590 212.6645 385.7066 212.0893 387.5630 211.2124 L 386.6494 214.3090 C 386.4043 214.4643 386.1299 214.6167 385.8252 214.7651 C 385.5283 214.9506 385.1943 215.1186 384.8233 215.2670 C 384.6450 215.3862 384.4483 215.4936 384.2329 215.5893 C 384.0176 215.7085 383.7910 215.8120 383.5532 215.9018 C 382.8184 216.2358 382.1167 216.5249 381.4483 216.7700 C 380.7803 217.0151 380.2495 217.1381 379.8560 217.1381 C 379.1875 217.1381 378.6382 216.9116 378.2075 216.4585 C 377.7544 216.0278 377.5283 215.5229 377.5283 214.9438 C 377.5283 214.6762 377.5576 214.4057 377.6172 214.1303 C 377.6470 213.8862 377.7080 213.6264 377.8013 213.3510 C 377.8941 213.0766 378.0142 212.8022 378.1631 212.5268 C 378.2891 212.2895 378.4263 212.0327 378.5752 211.7583 L 378.3076 211.5698 C 376.2066 214.0044 374.4097 215.5415 372.9175 216.1792 C 371.3950 216.8178 370.1963 217.1381 369.3198 217.1381 C 369.1939 217.1381 369.0713 217.1225 368.9526 217.0932 C 368.7964 217.0932 368.6592 217.0776 368.5405 217.0483 C 367.8125 216.8627 367.1597 216.4213 366.5801 215.7231 C 365.9712 215.0249 365.6670 213.9604 365.6670 212.5268 C 365.6670 211.8881 365.7896 211.2202 366.0347 210.5219 C 366.2422 209.8237 366.5469 209.1264 366.9478 208.4282 C 367.7647 206.9663 368.8745 205.5512 370.2778 204.1850 C 371.6738 202.8491 373.1177 201.7690 374.6104 200.9448 C 375.4268 200.4838 376.2324 200.1206 377.0269 199.8530 C 377.8140 199.6079 378.5601 199.4858 379.2656 199.4858 C 379.5401 199.4858 379.8892 199.5297 380.3125 199.6186 C 380.7359 199.7456 381.1773 199.9419 381.6377 200.2085 C 381.8159 200.3354 381.9961 200.4741 382.1777 200.6264 C 382.3599 200.7788 382.5435 200.9585 382.7295 201.1674 C 383.6128 199.1919 384.4780 197.2172 385.3242 195.2417 C 386.1777 193.2670 387.0020 191.2729 387.7969 189.2612 Z M 381.8159 202.9038 C 381.6304 202.6596 381.4190 202.4624 381.1812 202.3139 C 380.9360 202.1879 380.6909 202.0952 380.4463 202.0356 C 380.3569 202.0053 380.2495 201.9760 380.1231 201.9467 C 380.0044 201.9467 379.8853 201.9467 379.7666 201.9467 C 379.2471 201.9467 378.6528 202.0991 377.9849 202.4038 C 377.3164 202.7377 376.6484 203.1645 375.9800 203.6840 C 375.2153 204.2631 374.4692 204.9311 373.7417 205.6889 C 373.0137 206.4760 372.3901 207.2670 371.8706 208.0610 C 371.3877 208.7592 371.0093 209.4419 370.7344 210.1108 C 370.4302 210.8081 370.2778 211.4311 370.2778 211.9809 C 370.2778 212.4711 370.4151 212.8530 370.6900 213.1284 C 370.9273 213.3960 371.3208 213.5288 371.8706 213.5288 C 372.2935 213.5288 372.7505 213.4399 373.2402 213.2612 C 373.6934 213.1059 374.1499 212.8764 374.6104 212.5717 C 375.5532 211.9331 376.4815 211.0835 377.3945 210.0210 C 378.3076 208.9897 379.1279 207.9086 379.8560 206.7807 C 380.2793 206.0825 380.6577 205.3989 380.9917 204.7309 C 381.3262 204.0922 381.6006 203.4838 381.8159 202.9038 Z"/>
    <path fill="#FFFFFF" fill-rule="evenodd" clip-rule="evenodd" d="M 398.9609 212.8940 L 400.5122 212.8940 L 400.5684 212.8940 C 400.6279 212.8940 400.7173 212.8940 400.8359 212.8940 C 400.9624 212.8940 401.0855 212.9243 401.2046 212.9838 C 401.3833 213.0131 401.5503 213.1059 401.7066 213.2612 C 401.8555 213.4106 401.9302 213.6518 401.9302 213.9858 C 401.9302 214.1713 401.9004 214.3725 401.8408 214.5874 C 401.7813 214.7954 401.6919 215.0073 401.5728 215.2221 C 401.2974 215.7710 400.8994 216.2573 400.3784 216.6811 C 399.8276 217.1342 399.2661 217.4086 398.6929 217.5053 C 398.6631 217.5053 398.6299 217.5053 398.5928 217.5053 C 398.5332 217.5053 398.4883 217.5053 398.4590 217.5053 L 398.4141 217.5053 C 398.3545 217.5053 398.2466 217.4897 398.0903 217.4604 C 397.9414 217.4604 397.7891 217.4458 397.6328 217.4155 C 397.4243 217.3198 397.2422 217.1967 397.0859 217.0483 C 396.9072 216.8920 396.8179 216.6479 396.8179 216.3139 C 396.8179 216.1352 396.8477 215.9233 396.9072 215.6792 C 396.9370 215.4331 396.9966 215.1733 397.0859 214.8989 C 397.2422 214.4165 397.4878 213.9624 397.8223 213.5346 C 398.1572 213.1079 398.5366 212.8940 398.9609 212.8940 Z"/>
    <path fill="#FFFFFF" fill-rule="evenodd" clip-rule="evenodd" d="M 86.0845 136.7226 C 83.0542 136.7226 80.4556 135.6777 78.2886 133.5874 C 76.1216 131.4970 75.0381 128.8984 75.0381 125.7915 C 75.0381 122.7041 76.1167 120.1196 78.2744 118.0385 C 80.4321 115.9580 83.0352 114.9174 86.0845 114.9174 C 89.0952 114.9174 91.6797 115.9580 93.8374 118.0385 C 95.9946 120.1196 97.0737 122.7041 97.0737 125.7915 C 97.0737 128.8984 95.9995 131.4970 93.8516 133.5874 C 91.7036 135.6777 89.1148 136.7226 86.0845 136.7226 Z M 77.2246 125.7915 C 77.2246 128.3999 78.0776 130.5669 79.7847 132.2924 C 81.4912 134.0185 83.5913 134.8818 86.0845 134.8818 C 88.5776 134.8818 90.6680 134.0185 92.3560 132.2924 C 94.0430 130.5669 94.8872 128.3999 94.8872 125.7915 C 94.8872 123.2216 94.0430 121.0737 92.3560 119.3476 C 90.6680 117.6215 88.5776 116.7587 86.0845 116.7587 C 83.5913 116.7587 81.4912 117.6215 79.7847 119.3476 C 78.0776 121.0737 77.2246 123.2216 77.2246 125.7915 Z M 83.7832 126.6543 L 83.7832 132.0625 L 81.8848 132.0625 L 81.8848 119.5200 L 86.6602 119.5200 C 88.1748 119.5200 89.2920 119.8032 90.0112 120.3686 C 90.7305 120.9345 91.0899 121.8408 91.0899 123.0874 C 91.0899 124.1420 90.7974 124.9526 90.2129 125.5180 C 89.6275 126.0839 88.8462 126.4243 87.8682 126.5395 L 91.4356 132.0620 L 89.2861 132.0756 L 85.9600 126.6606 L 83.7832 126.6543 Z M 83.7832 125.0434 L 86.0845 125.0434 C 87.3692 125.0434 88.1992 124.8759 88.5728 124.5400 C 88.9468 124.2045 89.1338 123.6821 89.1338 122.9721 C 89.1338 122.2631 88.8794 121.7783 88.3716 121.5195 C 87.8633 121.2607 87.1968 121.1313 86.3721 121.1313 L 83.7832 121.1313 L 83.7832 125.0434 Z"/>
  </g>
</svg>
