<?xml version="1.0" encoding="UTF-8"?> <svg xmlns="http://www.w3.org/2000/svg" xmlns:xlink="http://www.w3.org/1999/xlink" version="1.1" id="Layer_1" x="0px" y="0px" viewBox="0 0 50 50" style="enable-background:new 0 0 50 50;" xml:space="preserve"> <style type="text/css"> .st002{fill:#1f7c45;} </style> <g> <path d="M40.6,19.6c-1.4-2.6-3.4-4.7-5.8-6.3l-1,1c-0.5,0.5-1.1,0.9-1.8,1.2c-0.7,0.3-1.3,0.4-2.1,0.4c-1.7,0-3.1-0.6-4.2-1.7 C24.6,13.1,24,11.7,24,10V4.4c-5,2.9-9,6.4-12,10.6c-2.9,4.2-4.4,8.5-4.4,13.1c0,4.9,1.7,9.1,5.1,12.5c3.4,3.4,7.6,5.1,12.5,5.1 s9.1-1.7,12.5-5.1c3.4-3.4,5.1-7.6,5.1-12.5C42.8,25,42.1,22.2,40.6,19.6z M35.6,38.4c-2.9,2.9-6.3,4.3-10.4,4.3s-7.5-1.4-10.4-4.3 c-2.9-2.9-4.3-6.3-4.3-10.4c0-3.9,1.3-7.7,3.9-11.4c1.8-2.5,4-4.8,6.7-6.8V10c0,2.4,0.9,4.6,2.6,6.3c1.7,1.7,3.8,2.5,6.3,2.5 c1.1,0,2.2-0.2,3.2-0.6c0.7-0.3,1.3-0.7,1.9-1.1c1.2,1.1,2.2,2.4,3,3.9c1.2,2.2,1.8,4.6,1.8,7.1C39.8,32.2,38.5,35.6,35.6,38.4z"></path> </g> <path class="st002" d="M25.2,25l-4.6,4.5c-0.6,0.6-1,1.3-1.4,2c-0.3,0.7-0.5,1.5-0.5,2.3c0,1.7,0.6,3.2,1.9,4.4 c1.3,1.2,2.8,1.8,4.5,1.8s3.3-0.6,4.5-1.8s1.9-2.7,1.9-4.4c0-0.9-0.2-1.6-0.5-2.4c-0.3-0.7-0.8-1.4-1.4-2L25.2,25z"></path> </svg> 