<?xml version="1.0" encoding="UTF-8"?> <svg xmlns="http://www.w3.org/2000/svg" xmlns:xlink="http://www.w3.org/1999/xlink" version="1.1" id="Layer_1" x="0px" y="0px" viewBox="0 0 50 50" style="enable-background:new 0 0 50 50;" xml:space="preserve"> <style type="text/css"> .st004{fill:#1f7c45;} </style> <circle class="st004" cx="18.1" cy="19.8" r="6.1"></circle> <path d="M16.8,45.7V34.3c0-0.2-0.1-0.4-0.2-0.5c-0.1-0.1-0.3-0.2-0.4-0.3c-3.4-0.6-6.3-2.1-8.5-4.7c-2.2-2.6-3.3-5.6-3.3-9 c0-3.8,1.4-7.1,4.1-9.8c2.7-2.7,6-4,9.8-4c3.4,0,6.4,1.1,9,3.3c2.6,2.2,4.1,5.1,4.7,8.5c0,0.2,0.1,0.3,0.3,0.5 c0.1,0.1,0.3,0.2,0.5,0.2h9.9l-4.8-4.8l2.3-2.3l8.8,8.8l-8.8,8.8l-2.3-2.3l4.8-4.8h-9.9c-1,0-1.9-0.3-2.6-1 c-0.8-0.7-1.2-1.5-1.4-2.5c-0.4-2.6-1.6-4.7-3.6-6.4c-1.9-1.7-4.2-2.5-6.8-2.5c-2.9,0-5.4,1-7.5,3.1c-2.1,2.1-3.1,4.6-3.1,7.5 c0,2.6,0.9,4.9,2.6,6.8c1.7,1.9,3.9,3.1,6.4,3.6c1,0.2,1.8,0.6,2.5,1.4c0.7,0.8,1,1.6,1,2.6v11.4H16.8z"></path> </svg> 