<svg xmlns="http://www.w3.org/2000/svg" viewBox="0 0 115 30" width="115" height="30">
  <g fill="#112d8d">
    <path d="M-62.39,15.67h0C-62.39,2.79-71.65,2-78.66,2H-88V29.3h9.34c7,0,16.27-.75,16.27-13.63M-78.66,26.24h-2.49V5.1h2.49c9.07,0,9.1,6.15,9.1,10.57s0,10.57-9.1,10.57" transform="translate(88 -0.92)"/>
    <path d="M-44.14,26.56V29.3h6.68V8.14h-6.68V19.68c0,4.17-1.31,6.7-4.4,6.7-3.27,0-4.37-2.34-4.37-5.21V8.11h-6.71V21.92c0,5.93,2.92,8.2,7.88,8.2s7-2.53,7.61-3.56" transform="translate(88 -0.92)"/>
    <path d="M-20.5,7.55c-4.68,0-6.24,2.7-6.48,3.17V8.15H-33.7v28H-27V26.93c.24.43,1.8,2.85,6.48,2.85s9.7-2.78,9.7-11.11h0c0-8.33-4.95-11.11-9.7-11.11m-2,19.23c-3.58,0-4.4-3.77-4.4-8.11s.81-8.11,4.4-8.11c3.41,0,4.57,3.67,4.57,8.16s-1.16,8.06-4.57,8.06" transform="translate(88 -0.92)"/>
    <rect x="79.83" y="0.08" width="6.72" height="28.39"/>
    <path d="M13.26,7.46h0c-9.8,0-12,5.94-12,11.09s2.24,11.09,12,11.09,12-5.94,12-11.09-2.24-11.09-12-11.09m0,20.06c-2.09,0-4.89-1-4.89-9s2.79-9,4.89-9,4.88,1,4.88,9-2.79,9-4.88,9" transform="translate(88 -0.92)"/>
  </g>
</svg>